<svg width="30" height="28" viewBox="0 0 55 52" fill="none" xmlns="http://www.w3.org/2000/svg">
<path d="M52.9893 21.6472L29.0323 0.768252C27.8543 -0.257748 26.1003 -0.255749 24.9263 0.772251L1.07131 21.6523C-1.09669 23.5503 0.246311 27.1213 3.12731 27.1213C4.85031 27.1213 6.24731 28.5183 6.24731 30.2423V48.4723C6.24731 50.1963 7.64531 51.5923 9.36831 51.5923H20.3033V35.6153C20.3033 34.6403 21.0923 33.8513 22.0663 33.8513H31.9993C32.9733 33.8513 33.7633 34.6403 33.7633 35.6153V51.5933H44.1483C45.8723 51.5933 47.2693 50.1973 47.2693 48.4733V30.2432C47.2693 28.5192 48.6663 27.1223 50.3893 27.1223H50.9393C53.8233 27.1203 55.1643 23.5422 52.9893 21.6472Z" fill="#ffffff"/>
</svg>
