<svg width="200" height="183" viewBox="0 0 200 183" fill="none" xmlns="http://www.w3.org/2000/svg">
<rect x="95.6523" y="8.69531" width="8.69565" height="8.69565" fill="#010104"/>
<rect x="104.348" y="17.3916" width="8.69565" height="8.69565" fill="#010104"/>
<rect width="8.69565" height="8.69565" transform="matrix(-1 0 0 1 95.6523 17.3916)" fill="#010104"/>
<rect x="113.043" y="26.0869" width="8.69565" height="8.69565" fill="#010104"/>
<rect width="8.69565" height="8.69565" transform="matrix(-1 0 0 1 86.9565 26.0869)" fill="#010104"/>
<rect x="121.739" y="34.7822" width="8.69565" height="8.69565" fill="#010104"/>
<rect width="8.69565" height="8.69565" transform="matrix(-1 0 0 1 78.2607 34.7822)" fill="#010104"/>
<rect x="121.739" y="43.4785" width="8.69565" height="8.69565" fill="#010104"/>
<rect width="8.69565" height="8.69565" transform="matrix(-1 0 0 1 78.2607 43.4785)" fill="#010104"/>
<rect x="130.435" y="52.1738" width="8.69565" height="8.69565" fill="#010104"/>
<rect width="8.69565" height="8.69565" transform="matrix(-1 0 0 1 69.5654 52.1738)" fill="#010104"/>
<rect x="130.435" y="60.8691" width="8.69565" height="8.69565" fill="#010104"/>
<rect width="8.69565" height="8.69565" transform="matrix(-1 0 0 1 69.5654 60.8691)" fill="#010104"/>
<rect x="130.435" y="69.5654" width="8.69565" height="8.69565" fill="#010104"/>
<rect width="8.69565" height="8.69565" transform="matrix(-1 0 0 1 69.5654 69.5654)" fill="#010104"/>
<rect x="139.13" y="69.5654" width="8.69565" height="8.69565" fill="#010104"/>
<rect width="8.69565" height="8.69565" transform="matrix(-1 0 0 1 60.8696 69.5654)" fill="#010104"/>
<rect x="147.826" y="60.8691" width="8.69565" height="8.69565" fill="#010104"/>
<rect width="8.69565" height="8.69565" transform="matrix(-1 0 0 1 52.1738 60.8691)" fill="#010104"/>
<rect x="156.522" y="69.5654" width="8.69565" height="8.69565" fill="#010104"/>
<rect width="8.69565" height="8.69565" transform="matrix(-1 0 0 1 43.478 69.5654)" fill="#010104"/>
<rect x="156.522" y="86.9561" width="8.69565" height="8.69565" fill="#F8575D"/>
<rect width="8.69565" height="8.69565" transform="matrix(-1 0 0 1 43.478 86.9561)" fill="#F8575D"/>
<rect x="130.435" y="78.2607" width="8.69565" height="8.69565" fill="#F8575D"/>
<rect width="8.69565" height="8.69565" transform="matrix(-1 0 0 1 69.5654 78.2607)" fill="#F8575D"/>
<rect x="147.826" y="78.2607" width="8.69565" height="8.69565" fill="#F8575D"/>
<rect width="8.69565" height="8.69565" transform="matrix(-1 0 0 1 52.1738 78.2607)" fill="#F8575D"/>
<rect x="147.826" y="69.5654" width="8.69565" height="8.69565" fill="#F8575D"/>
<rect width="8.69565" height="8.69565" transform="matrix(-1 0 0 1 52.1738 69.5654)" fill="#F8575D"/>
<rect x="113.043" y="34.7822" width="8.69565" height="5.43478" fill="#F8575D"/>
<rect x="95.6523" y="22.8262" width="8.69565" height="8.69565" fill="#F8575D"/>
<rect x="95.6523" y="31.5215" width="8.69565" height="8.69565" fill="#F8575D"/>
<rect x="95.6523" y="40.2178" width="8.69565" height="8.69565" fill="#F8575D"/>
<rect x="95.6523" y="48.9131" width="8.69565" height="8.69565" fill="#F8575D"/>
<rect x="95.6523" y="57.6084" width="8.69565" height="8.69565" fill="#F8575D"/>
<rect x="95.6523" y="17.3916" width="8.69565" height="5.43478" fill="#F8575D"/>
<rect width="8.69565" height="5.43478" transform="matrix(-1 0 0 1 86.9565 34.7822)" fill="#F8575D"/>
<rect x="156.522" y="78.2607" width="8.69565" height="8.69565" fill="#F8575D"/>
<rect width="8.69565" height="8.69565" transform="matrix(-1 0 0 1 43.478 78.2607)" fill="#F8575D"/>
<rect x="165.217" y="78.2607" width="8.69565" height="8.69565" fill="#F8575D"/>
<rect width="8.69565" height="8.69565" transform="matrix(-1 0 0 1 34.7827 78.2607)" fill="#F8575D"/>
<rect x="121.739" y="78.2607" width="8.69565" height="8.69565" fill="#F8575D"/>
<rect width="8.69565" height="8.69565" transform="matrix(-1 0 0 1 78.2607 78.2607)" fill="#F8575D"/>
<rect x="156.522" y="95.6523" width="8.69565" height="8.69565" fill="#F8575D"/>
<rect width="8.69565" height="8.69565" transform="matrix(-1 0 0 1 43.478 95.6523)" fill="#F8575D"/>
<rect x="147.826" y="95.6523" width="8.69565" height="8.69565" fill="#F8575D"/>
<rect width="8.69565" height="8.69565" transform="matrix(-1 0 0 1 52.1738 95.6523)" fill="#F8575D"/>
<rect x="139.13" y="95.6523" width="8.69565" height="8.69565" fill="#F8575D"/>
<rect width="8.69565" height="8.69565" transform="matrix(-1 0 0 1 60.8696 95.6523)" fill="#F8575D"/>
<rect x="130.435" y="95.6523" width="8.69565" height="8.69565" fill="#F8575D"/>
<rect width="8.69565" height="8.69565" transform="matrix(-1 0 0 1 69.5654 95.6523)" fill="#F8575D"/>
<rect width="8.69565" height="8.69565" transform="matrix(-1 0 0 1 43.478 130.435)" fill="#F8575D"/>
<rect width="8.69565" height="8.69565" transform="matrix(-1 0 0 1 121.739 130.435)" fill="#F8575D"/>
<rect width="8.69565" height="8.69565" transform="matrix(-1 0 0 1 52.1738 130.435)" fill="#F8575D"/>
<rect width="8.69565" height="8.69565" transform="matrix(-1 0 0 1 130.435 130.435)" fill="#AD241A"/>
<rect width="8.69565" height="8.69565" transform="matrix(-1 0 0 1 60.8696 130.435)" fill="#AD241A"/>
<rect width="8.69565" height="8.69565" transform="matrix(-1 0 0 1 139.13 130.435)" fill="#F8575D"/>
<rect width="8.69565" height="8.69565" transform="matrix(-1 0 0 1 69.5654 130.435)" fill="#F8575D"/>
<rect width="8.69565" height="8.69565" transform="matrix(-1 0 0 1 147.826 130.435)" fill="#AD241A"/>
<rect width="8.69565" height="8.69565" transform="matrix(-1 0 0 1 78.2607 130.435)" fill="#AD241A"/>
<rect width="8.69565" height="8.69565" transform="matrix(-1 0 0 1 156.522 130.435)" fill="#F8575D"/>
<rect width="8.69565" height="8.69565" transform="matrix(-1 0 0 1 86.9565 130.435)" fill="#F8575D"/>
<rect width="8.69565" height="8.69565" transform="matrix(-1 0 0 1 165.217 130.435)" fill="#F8575D"/>
<rect x="165.217" y="95.6523" width="8.69565" height="8.69565" fill="#F8575D"/>
<rect width="8.69565" height="8.69565" transform="matrix(-1 0 0 1 34.7827 95.6523)" fill="#F8575D"/>
<rect x="173.913" y="86.9561" width="8.69565" height="8.69565" fill="white"/>
<rect width="8.69565" height="8.69565" transform="matrix(-1 0 0 1 26.0869 86.9561)" fill="white"/>
<rect x="165.217" y="86.9561" width="8.69565" height="8.69565" fill="white"/>
<rect width="8.69565" height="8.69565" transform="matrix(-1 0 0 1 34.7827 86.9561)" fill="white"/>
<rect x="130.435" y="86.9561" width="8.69565" height="8.69565" fill="white"/>
<rect width="8.69565" height="8.69565" transform="matrix(-1 0 0 1 69.5654 86.9561)" fill="white"/>
<rect x="121.739" y="86.9561" width="8.69565" height="8.69565" fill="white"/>
<rect width="8.69565" height="8.69565" transform="matrix(-1 0 0 1 78.2607 86.9561)" fill="white"/>
<rect x="113.043" y="75" width="8.69565" height="8.69565" fill="white"/>
<rect x="113.043" y="109.782" width="8.69565" height="8.69565" fill="white"/>
<rect x="113.043" y="139.131" width="8.69565" height="8.69565" fill="white"/>
<rect x="78.2607" y="139.131" width="8.69565" height="8.69565" fill="white"/>
<rect x="69.5654" y="147.826" width="8.69565" height="8.69565" fill="white"/>
<rect x="121.739" y="147.826" width="8.69565" height="8.69565" fill="white"/>
<rect x="69.5654" y="156.521" width="8.69565" height="8.69565" fill="white"/>
<rect x="121.739" y="156.521" width="8.69565" height="8.69565" fill="white"/>
<rect x="60.8696" y="156.521" width="8.69565" height="8.69565" fill="white"/>
<rect x="34.7827" y="147.826" width="8.69565" height="8.69565" fill="white"/>
<rect x="34.7827" y="139.131" width="8.69565" height="8.69565" fill="white"/>
<rect x="43.478" y="147.826" width="8.69565" height="8.69565" fill="white"/>
<rect x="130.435" y="156.521" width="8.69565" height="8.69565" fill="white"/>
<rect x="156.522" y="147.826" width="8.69565" height="8.69565" fill="white"/>
<rect x="147.826" y="147.826" width="8.69565" height="8.69565" fill="white"/>
<rect x="156.522" y="139.131" width="8.69565" height="8.69565" fill="white"/>
<rect x="113.043" y="118.479" width="8.69565" height="3.26087" fill="white"/>
<rect x="78.2607" y="118.479" width="8.69565" height="3.26087" fill="white"/>
<rect width="8.69565" height="8.69565" transform="matrix(-1 0 0 1 86.9565 75)" fill="white"/>
<rect width="8.69565" height="8.69565" transform="matrix(-1 0 0 1 86.9565 109.782)" fill="white"/>
<rect x="104.348" y="26.0869" width="8.69565" height="5.43478" fill="white"/>
<rect width="8.69565" height="5.43478" transform="matrix(-1 0 0 1 95.6523 26.0869)" fill="white"/>
<rect x="121.739" y="95.6523" width="8.69565" height="8.69565" fill="white"/>
<rect x="121.739" y="104.348" width="8.69565" height="8.69565" fill="white"/>
<rect x="121.739" y="113.044" width="8.69565" height="8.69565" fill="white"/>
<rect x="130.435" y="113.044" width="8.69565" height="8.69565" fill="white"/>
<rect width="8.69565" height="8.69565" transform="matrix(-1 0 0 1 78.2607 95.6523)" fill="white"/>
<rect width="8.69565" height="8.69565" transform="matrix(-1 0 0 1 78.2607 104.348)" fill="white"/>
<rect width="8.69565" height="8.69565" transform="matrix(-1 0 0 1 78.2607 113.044)" fill="white"/>
<rect width="8.69565" height="8.69565" transform="matrix(-1 0 0 1 69.5654 113.044)" fill="white"/>
<rect x="139.13" y="86.9561" width="8.69565" height="8.69565" fill="#AD241A"/>
<rect x="139.13" y="113.044" width="8.69565" height="8.69565" fill="#AD241A"/>
<rect x="139.13" y="121.739" width="8.69565" height="8.69565" fill="#AD241A"/>
<rect x="139.13" y="139.131" width="8.69565" height="8.69565" fill="#AD241A"/>
<rect x="139.13" y="147.826" width="8.69565" height="8.69565" fill="#AD241A"/>
<rect x="130.435" y="139.131" width="8.69565" height="8.69565" fill="#AD241A"/>
<rect x="147.826" y="139.131" width="8.69565" height="8.69565" fill="#AD241A"/>
<rect x="130.435" y="121.739" width="8.69565" height="8.69565" fill="#F8575D"/>
<rect x="121.739" y="121.739" width="8.69565" height="8.69565" fill="#AD241A"/>
<rect x="113.043" y="121.739" width="8.69565" height="8.69565" fill="#AD241A"/>
<rect x="147.826" y="121.739" width="8.69565" height="8.69565" fill="#AD241A"/>
<rect width="8.69565" height="8.69565" transform="matrix(-1 0 0 1 60.8696 86.9561)" fill="#AD241A"/>
<rect width="8.69565" height="8.69565" transform="matrix(-1 0 0 1 60.8696 113.044)" fill="#AD241A"/>
<rect width="8.69565" height="8.69565" transform="matrix(-1 0 0 1 60.8696 121.739)" fill="#AD241A"/>
<rect width="8.69565" height="8.69565" transform="matrix(-1 0 0 1 52.1738 121.739)" fill="#AD241A"/>
<rect width="8.69565" height="8.69565" transform="matrix(-1 0 0 1 52.1738 139.131)" fill="#AD241A"/>
<rect width="8.69565" height="8.69565" transform="matrix(-1 0 0 1 60.8696 139.131)" fill="#AD241A"/>
<rect width="8.69565" height="8.69565" transform="matrix(-1 0 0 1 60.8696 147.826)" fill="#AD241A"/>
<rect width="8.69565" height="8.69565" transform="matrix(-1 0 0 1 69.5654 139.131)" fill="#AD241A"/>
<rect width="8.69565" height="8.69565" transform="matrix(-1 0 0 1 69.5654 121.739)" fill="#F8575D"/>
<rect width="8.69565" height="8.69565" transform="matrix(-1 0 0 1 78.2607 121.739)" fill="#AD241A"/>
<rect width="8.69565" height="8.69565" transform="matrix(-1 0 0 1 86.9565 121.739)" fill="#AD241A"/>
<rect x="139.13" y="78.2607" width="8.69565" height="8.69565" fill="#AD241A"/>
<rect width="8.69565" height="8.69565" transform="matrix(-1 0 0 1 60.8696 78.2607)" fill="#AD241A"/>
<rect x="113.043" y="66.3047" width="8.69565" height="8.69565" fill="#AD241A"/>
<rect width="8.69565" height="8.69565" transform="matrix(-1 0 0 1 86.9565 66.3047)" fill="#AD241A"/>
<rect x="113.043" y="57.6084" width="8.69565" height="8.69565" fill="#AD241A"/>
<rect width="8.69565" height="8.69565" transform="matrix(-1 0 0 1 86.9565 57.6084)" fill="#AD241A"/>
<rect x="104.348" y="57.6084" width="8.69565" height="8.69565" fill="#AD241A"/>
<rect width="8.69565" height="8.69565" transform="matrix(-1 0 0 1 95.6523 57.6084)" fill="#AD241A"/>
<rect x="104.348" y="48.9131" width="8.69565" height="8.69565" fill="#AD241A"/>
<rect width="8.69565" height="8.69565" transform="matrix(-1 0 0 1 95.6523 48.9131)" fill="#AD241A"/>
<rect x="104.348" y="40.2178" width="8.69565" height="8.69565" fill="#AD241A"/>
<rect width="8.69565" height="8.69565" transform="matrix(-1 0 0 1 95.6523 40.2178)" fill="#AD241A"/>
<rect x="104.348" y="31.5215" width="8.69565" height="8.69565" fill="#AD241A"/>
<rect width="8.69565" height="8.69565" transform="matrix(-1 0 0 1 95.6523 31.5215)" fill="#AD241A"/>
<rect x="113.043" y="48.9131" width="8.69565" height="8.69565" fill="#AD241A"/>
<rect width="8.69565" height="8.69565" transform="matrix(-1 0 0 1 86.9565 48.9131)" fill="#AD241A"/>
<rect x="113.043" y="40.2178" width="8.69565" height="8.69565" fill="#AD241A"/>
<rect width="8.69565" height="8.69565" transform="matrix(-1 0 0 1 86.9565 40.2178)" fill="#AD241A"/>
<rect x="121.739" y="60.8691" width="8.69565" height="8.69565" fill="#AD241A"/>
<rect width="8.69565" height="8.69565" transform="matrix(-1 0 0 1 78.2607 60.8691)" fill="#AD241A"/>
<rect x="121.739" y="52.1738" width="8.69565" height="8.69565" fill="#AD241A"/>
<rect width="8.69565" height="8.69565" transform="matrix(-1 0 0 1 78.2607 52.1738)" fill="#AD241A"/>
<rect x="147.826" y="86.9561" width="8.69565" height="8.69565" fill="#AD241A"/>
<rect width="8.69565" height="8.69565" transform="matrix(-1 0 0 1 52.1738 86.9561)" fill="#AD241A"/>
<rect x="165.217" y="69.5654" width="8.69565" height="8.69565" fill="#010104"/>
<rect width="8.69565" height="8.69565" transform="matrix(-1 0 0 1 34.7827 69.5654)" fill="#010104"/>
<rect x="173.913" y="78.2607" width="8.69565" height="8.69565" fill="#010104"/>
<rect width="8.69565" height="8.69565" transform="matrix(-1 0 0 1 26.0869 78.2607)" fill="#010104"/>
<rect width="8.69565" height="8.69565" transform="matrix(-1 0 0 1 17.3911 86.9561)" fill="#010104"/>
<rect width="8.69565" height="8.69565" transform="matrix(-1 0 0 1 191.304 86.9561)" fill="#010104"/>
<rect x="173.913" y="95.6523" width="8.69565" height="8.69565" fill="#010104"/>
<rect width="8.69565" height="8.69565" transform="matrix(-1 0 0 1 26.0869 95.6523)" fill="#010104"/>
<rect x="165.217" y="104.348" width="8.69565" height="8.69565" fill="#010104"/>
<rect width="8.69565" height="8.69565" transform="matrix(-1 0 0 1 34.7827 104.348)" fill="#010104"/>
<rect x="156.522" y="104.348" width="8.69565" height="8.69565" fill="#010104"/>
<rect width="8.69565" height="8.69565" transform="matrix(-1 0 0 1 43.478 104.348)" fill="#010104"/>
<rect x="147.826" y="104.348" width="8.69565" height="8.69565" fill="#010104"/>
<rect width="8.69565" height="8.69565" transform="matrix(-1 0 0 1 52.1738 104.348)" fill="#010104"/>
<rect x="139.13" y="104.348" width="8.69565" height="8.69565" fill="#010104"/>
<rect width="8.69565" height="8.69565" transform="matrix(-1 0 0 1 60.8696 104.348)" fill="#010104"/>
<rect x="130.435" y="104.348" width="8.69565" height="8.69565" fill="#010104"/>
<rect width="8.69565" height="8.69565" transform="matrix(-1 0 0 1 69.5654 104.348)" fill="#010104"/>
<rect x="147.826" y="113.044" width="8.69565" height="8.69565" fill="#010104"/>
<rect width="8.69565" height="8.69565" transform="matrix(-1 0 0 1 52.1738 113.044)" fill="#010104"/>
<rect x="156.522" y="121.739" width="8.69565" height="8.69565" fill="#010104"/>
<rect width="8.69565" height="8.69565" transform="matrix(-1 0 0 1 43.478 121.739)" fill="#010104"/>
<rect x="165.217" y="130.435" width="8.69565" height="8.69565" fill="#010104"/>
<rect width="8.69565" height="8.69565" transform="matrix(-1 0 0 1 34.7827 130.435)" fill="#010104"/>
<rect x="165.217" y="139.131" width="8.69565" height="8.69565" fill="#010104"/>
<rect width="8.69565" height="8.69565" transform="matrix(-1 0 0 1 34.7827 139.131)" fill="#010104"/>
<rect x="165.217" y="147.826" width="8.69565" height="8.69565" fill="#010104"/>
<rect width="8.69565" height="8.69565" transform="matrix(-1 0 0 1 34.7827 147.826)" fill="#010104"/>
<rect x="165.217" y="156.521" width="8.69565" height="8.69565" fill="#010104"/>
<rect width="8.69565" height="8.69565" transform="matrix(-1 0 0 1 34.7827 156.521)" fill="#010104"/>
<rect x="156.522" y="156.521" width="8.69565" height="8.69565" fill="#010104"/>
<rect width="8.69565" height="8.69565" transform="matrix(-1 0 0 1 43.478 156.521)" fill="#010104"/>
<rect x="147.826" y="156.521" width="8.69565" height="8.69565" fill="#010104"/>
<rect width="8.69565" height="8.69565" transform="matrix(-1 0 0 1 52.1738 156.521)" fill="#010104"/>
<rect x="139.13" y="156.521" width="8.69565" height="8.69565" fill="#010104"/>
<rect width="8.69565" height="8.69565" transform="matrix(-1 0 0 1 60.8696 156.521)" fill="#010104"/>
<rect x="130.435" y="165.218" width="8.69565" height="8.69565" fill="#010104"/>
<rect width="8.69565" height="8.69565" transform="matrix(-1 0 0 1 69.5654 165.218)" fill="#010104"/>
<rect x="121.739" y="165.218" width="8.69565" height="8.69565" fill="#010104"/>
<rect width="8.69565" height="8.69565" transform="matrix(-1 0 0 1 78.2607 165.218)" fill="#010104"/>
<rect x="113.043" y="156.521" width="8.69565" height="8.69565" fill="#010104"/>
<rect width="8.69565" height="8.69565" transform="matrix(-1 0 0 1 86.9565 156.521)" fill="#010104"/>
<rect x="113.043" y="147.826" width="8.69565" height="8.69565" fill="#010104"/>
<rect width="8.69565" height="8.69565" transform="matrix(-1 0 0 1 86.9565 147.826)" fill="#010104"/>
<rect width="8.69565" height="8.69565" transform="matrix(-1 0 0 1 104.348 139.131)" fill="#010104"/>
<rect x="95.6523" y="139.131" width="8.69565" height="8.69565" fill="#010104"/>
<rect width="8.69565" height="8.69565" transform="matrix(-1 0 0 1 113.043 139.131)" fill="#010104"/>
<rect x="86.9565" y="139.131" width="8.69565" height="8.69565" fill="#010104"/>
<rect x="121.739" y="139.131" width="8.69565" height="8.69565" fill="#010104"/>
<rect width="8.69565" height="8.69565" transform="matrix(-1 0 0 1 78.2607 139.131)" fill="#010104"/>
<rect x="130.435" y="147.826" width="8.69565" height="8.69565" fill="#010104"/>
<rect width="8.69565" height="8.69565" transform="matrix(-1 0 0 1 69.5654 147.826)" fill="#010104"/>
<rect x="121.739" y="69.5654" width="8.69565" height="8.69565" fill="#010104"/>
<rect width="8.69565" height="8.69565" transform="matrix(-1 0 0 1 78.2607 69.5654)" fill="#010104"/>
<rect x="113.043" y="83.6953" width="8.69565" height="8.69565" fill="#010104"/>
<rect width="8.69565" height="8.69565" transform="matrix(-1 0 0 1 86.9565 83.6953)" fill="#010104"/>
<rect x="104.348" y="83.6953" width="8.69565" height="8.69565" fill="#010104"/>
<rect width="8.69565" height="8.69565" transform="matrix(-1 0 0 1 95.6523 83.6953)" fill="#010104"/>
<rect x="104.348" y="75" width="8.69565" height="8.69565" fill="#010104"/>
<rect width="8.69565" height="8.69565" transform="matrix(-1 0 0 1 95.6523 75)" fill="#010104"/>
<rect x="95.6523" y="83.6953" width="8.69565" height="8.69565" fill="#010104"/>
<rect x="95.6523" y="75" width="8.69565" height="8.69565" fill="#010104"/>
<rect x="95.6523" y="66.3047" width="8.69565" height="8.69565" fill="white"/>
<rect x="95.6523" y="118.479" width="8.69565" height="8.69565" fill="white"/>
<rect x="104.348" y="66.3047" width="8.69565" height="8.69565" fill="white"/>
<rect x="95.6523" width="8.69565" height="8.69565" fill="white"/>
<rect width="8.69565" height="8.69565" transform="matrix(-1 0 0 1 104.348 0)" fill="white"/>
<rect x="104.348" y="8.69531" width="8.69565" height="8.69565" fill="white"/>
<rect width="8.69565" height="8.69565" transform="matrix(-1 0 0 1 95.6523 8.69531)" fill="white"/>
<rect x="113.043" y="17.3916" width="8.69565" height="8.69565" fill="white"/>
<rect width="8.69565" height="8.69565" transform="matrix(-1 0 0 1 86.9565 17.3916)" fill="white"/>
<rect x="121.739" y="26.0869" width="8.69565" height="8.69565" fill="white"/>
<rect width="8.69565" height="8.69565" transform="matrix(-1 0 0 1 78.2607 26.0869)" fill="white"/>
<rect x="130.435" y="34.7822" width="8.69565" height="8.69565" fill="white"/>
<rect width="8.69565" height="8.69565" transform="matrix(-1 0 0 1 69.5654 34.7822)" fill="white"/>
<rect x="130.435" y="43.4785" width="8.69565" height="8.69565" fill="white"/>
<rect width="8.69565" height="8.69565" transform="matrix(-1 0 0 1 69.5654 43.4785)" fill="white"/>
<rect x="147.826" y="52.1738" width="8.69565" height="8.69565" fill="white"/>
<rect width="8.69565" height="8.69565" transform="matrix(-1 0 0 1 52.1738 52.1738)" fill="white"/>
<rect x="156.522" y="60.8691" width="8.69565" height="8.69565" fill="white"/>
<rect width="8.69565" height="8.69565" transform="matrix(-1 0 0 1 43.478 60.8691)" fill="white"/>
<rect x="165.217" y="60.8691" width="8.69565" height="8.69565" fill="white"/>
<rect width="8.69565" height="8.69565" transform="matrix(-1 0 0 1 34.7827 60.8691)" fill="white"/>
<rect x="173.913" y="69.5654" width="8.69565" height="8.69565" fill="white"/>
<rect width="8.69565" height="8.69565" transform="matrix(-1 0 0 1 26.0869 69.5654)" fill="white"/>
<rect x="173.913" y="104.348" width="8.69565" height="8.69565" fill="white"/>
<rect width="8.69565" height="8.69565" transform="matrix(-1 0 0 1 26.0869 104.348)" fill="white"/>
<rect x="173.913" y="113.044" width="8.69565" height="8.69565" fill="white"/>
<rect width="8.69565" height="8.69565" transform="matrix(-1 0 0 1 26.0869 113.044)" fill="white"/>
<rect x="165.217" y="113.044" width="8.69565" height="8.69565" fill="white"/>
<rect width="8.69565" height="8.69565" transform="matrix(-1 0 0 1 34.7827 113.044)" fill="white"/>
<rect x="165.217" y="121.739" width="8.69565" height="8.69565" fill="white"/>
<rect width="8.69565" height="8.69565" transform="matrix(-1 0 0 1 34.7827 121.739)" fill="white"/>
<rect x="173.913" y="130.435" width="8.69565" height="8.69565" fill="white"/>
<rect width="8.69565" height="8.69565" transform="matrix(-1 0 0 1 26.0869 130.435)" fill="white"/>
<rect x="173.913" y="139.131" width="8.69565" height="8.69565" fill="white"/>
<rect width="8.69565" height="8.69565" transform="matrix(-1 0 0 1 26.0869 139.131)" fill="white"/>
<rect x="173.913" y="147.826" width="8.69565" height="8.69565" fill="white"/>
<rect width="8.69565" height="8.69565" transform="matrix(-1 0 0 1 26.0869 147.826)" fill="white"/>
<rect x="173.913" y="156.521" width="8.69565" height="8.69565" fill="white"/>
<rect width="8.69565" height="8.69565" transform="matrix(-1 0 0 1 26.0869 156.521)" fill="white"/>
<rect x="165.217" y="165.218" width="8.69565" height="8.69565" fill="white"/>
<rect width="8.69565" height="8.69565" transform="matrix(-1 0 0 1 34.7827 165.218)" fill="white"/>
<rect x="156.522" y="165.218" width="8.69565" height="8.69565" fill="white"/>
<rect width="8.69565" height="8.69565" transform="matrix(-1 0 0 1 43.478 165.218)" fill="white"/>
<rect x="147.826" y="165.218" width="8.69565" height="8.69565" fill="white"/>
<rect width="8.69565" height="8.69565" transform="matrix(-1 0 0 1 52.1738 165.218)" fill="white"/>
<rect x="139.13" y="165.218" width="8.69565" height="8.69565" fill="white"/>
<rect width="8.69565" height="8.69565" transform="matrix(-1 0 0 1 60.8696 165.218)" fill="white"/>
<rect x="130.435" y="173.913" width="8.69565" height="8.69565" fill="white"/>
<rect width="8.69565" height="8.69565" transform="matrix(-1 0 0 1 69.5654 173.913)" fill="white"/>
<rect x="121.739" y="173.913" width="8.69565" height="8.69565" fill="white"/>
<rect width="8.69565" height="8.69565" transform="matrix(-1 0 0 1 78.2607 173.913)" fill="white"/>
<rect x="113.043" y="165.218" width="8.69565" height="8.69565" fill="white"/>
<rect width="8.69565" height="8.69565" transform="matrix(-1 0 0 1 86.9565 165.218)" fill="white"/>
<rect x="104.348" y="156.521" width="8.69565" height="8.69565" fill="white"/>
<rect width="8.69565" height="8.69565" transform="matrix(-1 0 0 1 95.6523 156.521)" fill="white"/>
<rect x="104.348" y="147.826" width="8.69565" height="8.69565" fill="white"/>
<rect width="8.69565" height="8.69565" transform="matrix(-1 0 0 1 95.6523 147.826)" fill="white"/>
<rect width="8.69565" height="8.69565" transform="matrix(-1 0 0 1 104.348 147.826)" fill="white"/>
<rect x="156.522" y="113.044" width="8.69565" height="8.69565" fill="white"/>
<rect width="8.69565" height="8.69565" transform="matrix(-1 0 0 1 43.478 113.044)" fill="white"/>
<rect x="182.609" y="78.2607" width="8.69565" height="8.69565" fill="white"/>
<rect width="8.69565" height="8.69565" transform="matrix(-1 0 0 1 17.3911 78.2607)" fill="white"/>
<rect x="182.609" y="95.6523" width="8.69565" height="8.69565" fill="white"/>
<rect width="8.69565" height="8.69565" transform="matrix(-1 0 0 1 17.3911 95.6523)" fill="white"/>
<rect x="191.304" y="86.9561" width="8.69565" height="8.69565" fill="white"/>
<rect width="8.69565" height="8.69565" transform="matrix(-1 0 0 1 8.6958 86.9561)" fill="white"/>
<rect x="139.13" y="60.8691" width="8.69565" height="8.69565" fill="white"/>
<rect width="8.69565" height="8.69565" transform="matrix(-1 0 0 1 60.8696 60.8691)" fill="white"/>
<rect x="104.348" y="118.479" width="8.69565" height="8.69565" fill="white"/>
<rect width="8.69565" height="8.69565" transform="matrix(-1 0 0 1 95.6523 66.3047)" fill="white"/>
<rect width="8.69565" height="8.69565" transform="matrix(-1 0 0 1 95.6523 118.479)" fill="white"/>
<rect width="8.69565" height="3.26087" transform="matrix(-1 0 0 1 95.6523 127.174)" fill="white"/>
<rect width="8.69565" height="3.26087" transform="matrix(-1 0 0 1 104.348 127.174)" fill="white"/>
<rect width="8.69565" height="3.26087" transform="matrix(-1 0 0 1 113.043 127.174)" fill="white"/>
<rect width="8.69565" height="8.69565" transform="matrix(-1 0 0 1 113.043 130.435)" fill="white"/>
<rect width="8.69565" height="8.69565" transform="matrix(-1 0 0 1 104.348 130.435)" fill="#AD241A"/>
<rect width="8.69565" height="8.69565" transform="matrix(-1 0 0 1 95.6523 130.435)" fill="white"/>
<rect x="113.043" y="92.3916" width="8.69565" height="8.69565" fill="#010104"/>
<rect width="8.69565" height="8.69565" transform="matrix(-1 0 0 1 86.9565 92.3916)" fill="#010104"/>
<rect x="104.348" y="92.3916" width="8.69565" height="8.69565" fill="#010104"/>
<rect width="8.69565" height="8.69565" transform="matrix(-1 0 0 1 95.6523 92.3916)" fill="#010104"/>
<rect x="95.6523" y="92.3916" width="8.69565" height="8.69565" fill="#010104"/>
<rect x="113.043" y="101.087" width="8.69565" height="8.69565" fill="#010104"/>
<rect width="8.69565" height="8.69565" transform="matrix(-1 0 0 1 86.9565 101.087)" fill="#010104"/>
<rect x="104.348" y="101.087" width="8.69565" height="8.69565" fill="#010104"/>
<rect width="8.69565" height="8.69565" transform="matrix(-1 0 0 1 95.6523 101.087)" fill="#010104"/>
<rect x="104.348" y="109.782" width="8.69565" height="8.69565" fill="#010104"/>
<rect width="8.69565" height="8.69565" transform="matrix(-1 0 0 1 95.6523 109.782)" fill="#010104"/>
<rect x="95.6523" y="101.087" width="8.69565" height="8.69565" fill="#010104"/>
<rect x="95.6523" y="109.782" width="8.69565" height="8.69565" fill="#010104"/>
</svg>
