<svg width="41" height="61" viewBox="0 0 41 61" fill="none" xmlns="http://www.w3.org/2000/svg">
<rect x="2.92871" y="19.0391" width="2.92857" height="3.74998" fill="#E50914"/>
<rect x="5.85718" y="19.0391" width="2.92857" height="3.74998" fill="#E50914"/>
<rect x="8.78564" y="19.0391" width="2.92857" height="3.74998" fill="#E50914"/>
<rect x="8.78564" y="15.2891" width="2.92857" height="3.74998" fill="#E50914"/>
<rect x="5.85718" y="15.2891" width="2.92857" height="3.74998" fill="#E50914"/>
<rect x="2.92871" y="15.2891" width="2.92857" height="3.74998" fill="#E50914"/>
<rect y="15.2891" width="2.92857" height="3.74998" fill="#E50914"/>
<rect y="11.5391" width="2.92857" height="3.74998" fill="#E50914"/>
<rect x="2.92871" y="11.5391" width="2.92857" height="3.74998" fill="#E50914"/>
<rect x="5.85718" y="11.5391" width="2.92857" height="3.74998" fill="#E50914"/>
<rect x="8.78564" y="11.5391" width="2.92857" height="3.74998" fill="#E50914"/>
<rect x="11.7144" y="11.5391" width="2.92857" height="3.74998" fill="#E50914"/>
<rect x="14.6428" y="11.5391" width="2.92857" height="3.74998" fill="#E50914"/>
<rect x="17.5713" y="11.5391" width="2.92857" height="3.74998" fill="#E50914"/>
<rect x="20.5" y="11.5391" width="2.92857" height="3.74998" fill="#E50914"/>
<rect x="23.4287" y="11.5391" width="2.92857" height="3.74998" fill="#E50914"/>
<rect x="26.3572" y="11.5391" width="2.92857" height="3.74998" fill="#E50914"/>
<rect x="26.3572" y="15.2891" width="2.92857" height="3.74998" fill="#E50914"/>
<rect x="26.3572" y="19.0391" width="2.92857" height="3.74998" fill="#E50914"/>
<rect x="26.3572" y="22.7881" width="2.92857" height="3.74998" fill="#E50914"/>
<rect x="23.4287" y="22.7881" width="2.92857" height="3.74998" fill="#E50914"/>
<rect x="20.5" y="22.7881" width="2.92857" height="3.74998" fill="#E50914"/>
<rect x="17.5713" y="22.7881" width="2.92857" height="3.74998" fill="#E50914"/>
<rect x="26.3572" y="26.5391" width="2.92857" height="3.74998" fill="#E50914"/>
<rect x="23.4287" y="26.5391" width="2.92857" height="3.74998" fill="#E50914"/>
<rect x="20.5" y="26.5391" width="2.92857" height="3.74998" fill="#E50914"/>
<rect x="17.5713" y="26.5391" width="2.92857" height="3.74998" fill="#E50914"/>
<rect x="14.6428" y="26.5391" width="2.92857" height="3.74998" fill="#E50914"/>
<rect x="26.3572" y="30.2891" width="2.92857" height="3.74998" fill="#E50914"/>
<rect x="23.4287" y="30.2891" width="2.92857" height="3.74998" fill="#E50914"/>
<rect x="23.4287" y="34.0391" width="2.92857" height="3.74998" fill="#E50914"/>
<rect x="23.4287" y="37.7891" width="2.92857" height="3.74998" fill="#E50914"/>
<rect x="20.5" y="30.2891" width="2.92857" height="3.74998" fill="#E50914"/>
<rect x="20.5" y="34.0391" width="2.92857" height="3.74998" fill="#E50914"/>
<rect x="20.5" y="37.7891" width="2.92857" height="3.74998" fill="#E50914"/>
<rect x="17.5713" y="30.2891" width="2.92857" height="3.74998" fill="#E50914"/>
<rect x="17.5713" y="34.0391" width="2.92857" height="3.74998" fill="#E50914"/>
<rect x="17.5713" y="37.7891" width="2.92857" height="3.74998" fill="#E50914"/>
<rect x="14.6428" y="30.2891" width="2.92857" height="3.74998" fill="#E50914"/>
<rect x="11.7144" y="30.2891" width="2.92857" height="3.74998" fill="#E50914"/>
<rect x="14.6428" y="34.0391" width="2.92857" height="3.74998" fill="#E50914"/>
<rect x="11.7144" y="34.0391" width="2.92857" height="3.74998" fill="#E50914"/>
<rect x="14.6428" y="37.7891" width="2.92857" height="3.74998" fill="#E50914"/>
<rect x="11.7144" y="37.7891" width="2.92857" height="3.74998" fill="#E50914"/>
<rect x="11.7144" y="45.2891" width="2.92857" height="3.74998" fill="#E50914"/>
<rect x="11.7144" y="49.0381" width="2.92857" height="3.74998" fill="#E50914"/>
<rect x="11.7144" y="52.7891" width="2.92857" height="3.74998" fill="#E50914"/>
<rect x="14.6428" y="45.2891" width="2.92857" height="3.74998" fill="#E50914"/>
<rect x="14.6428" y="49.0381" width="2.92857" height="3.74998" fill="#E50914"/>
<rect x="14.6428" y="52.7891" width="2.92857" height="3.74998" fill="#E50914"/>
<rect x="17.5713" y="45.2891" width="2.92857" height="3.74998" fill="#E50914"/>
<rect x="17.5713" y="49.0381" width="2.92857" height="3.74998" fill="#E50914"/>
<rect x="17.5713" y="52.7891" width="2.92857" height="3.74998" fill="#E50914"/>
<rect x="20.5" y="45.2891" width="2.92857" height="3.74998" fill="#E50914"/>
<rect x="20.5" y="49.0381" width="2.92857" height="3.74998" fill="#E50914"/>
<rect x="20.5" y="52.7891" width="2.92857" height="3.74998" fill="#E50914"/>
<rect x="20.5" y="56.5391" width="2.92857" height="3.74998" fill="#E50914"/>
<rect x="17.5713" y="56.5391" width="2.92857" height="3.74998" fill="#E50914"/>
<rect x="14.6428" y="56.5391" width="2.92857" height="3.74998" fill="#E50914"/>
<rect x="23.4287" y="45.2891" width="2.92857" height="3.74998" fill="#E50914"/>
<rect x="23.4287" y="49.0381" width="2.92857" height="3.74998" fill="#E50914"/>
<rect x="23.4287" y="52.7891" width="2.92857" height="3.74998" fill="#E50914"/>
<rect x="29.2856" y="11.5391" width="2.92857" height="3.74998" fill="#E50914"/>
<rect x="29.2856" y="15.2891" width="2.92857" height="3.74998" fill="#E50914"/>
<rect x="29.2856" y="19.0391" width="2.92857" height="3.74998" fill="#E50914"/>
<rect x="29.2856" y="22.7881" width="2.92857" height="3.74998" fill="#E50914"/>
<rect x="29.2856" y="26.5391" width="2.92857" height="3.74998" fill="#E50914"/>
<rect x="29.2856" y="30.2891" width="2.92857" height="3.74998" fill="#E50914"/>
<rect x="32.2141" y="11.5391" width="2.92857" height="3.74998" fill="#E50914"/>
<rect x="32.2141" y="15.2891" width="2.92857" height="3.74998" fill="#E50914"/>
<rect x="32.2141" y="19.0391" width="2.92857" height="3.74998" fill="#E50914"/>
<rect x="32.2141" y="22.7881" width="2.92857" height="3.74998" fill="#E50914"/>
<rect x="32.2141" y="26.5391" width="2.92857" height="3.74998" fill="#E50914"/>
<rect x="32.2141" y="30.2891" width="2.92857" height="3.74998" fill="#E50914"/>
<rect x="35.1428" y="11.5391" width="2.92857" height="3.74998" fill="#E50914"/>
<rect x="35.1428" y="15.2891" width="2.92857" height="3.74998" fill="#E50914"/>
<rect x="35.1428" y="19.0391" width="2.92857" height="3.74998" fill="#E50914"/>
<rect x="35.1428" y="22.7881" width="2.92857" height="3.74998" fill="#E50914"/>
<rect x="35.1428" y="26.5391" width="2.92857" height="3.74998" fill="#E50914"/>
<rect x="38.0713" y="11.5391" width="2.92857" height="3.74998" fill="#E50914"/>
<rect x="38.0713" y="15.2891" width="2.92857" height="3.74998" fill="#E50914"/>
<rect x="38.0713" y="19.0391" width="2.92857" height="3.74998" fill="#E50914"/>
<rect x="38.0713" y="22.7881" width="2.92857" height="3.74998" fill="#E50914"/>
<rect y="7.78906" width="2.92857" height="3.74998" fill="#E50914"/>
<rect x="2.92871" y="7.78906" width="2.92857" height="3.74998" fill="#E50914"/>
<rect x="5.85718" y="7.78906" width="2.92857" height="3.74998" fill="#E50914"/>
<rect x="8.78564" y="7.78906" width="2.92857" height="3.74998" fill="#E50914"/>
<rect x="11.7144" y="7.78906" width="2.92857" height="3.74998" fill="#E50914"/>
<rect x="14.6428" y="7.78906" width="2.92857" height="3.74998" fill="#E50914"/>
<rect x="17.5713" y="7.78906" width="2.92857" height="3.74998" fill="#E50914"/>
<rect x="20.5" y="7.78906" width="2.92857" height="3.74998" fill="#E50914"/>
<rect x="23.4287" y="7.78906" width="2.92857" height="3.74998" fill="#E50914"/>
<rect x="26.3572" y="7.78906" width="2.92857" height="3.74998" fill="#E50914"/>
<rect x="29.2856" y="7.78906" width="2.92857" height="3.74998" fill="#E50914"/>
<rect x="32.2141" y="7.78906" width="2.92857" height="3.74998" fill="#E50914"/>
<rect x="35.1428" y="7.78906" width="2.92857" height="3.74998" fill="#E50914"/>
<rect x="38.0713" y="7.78906" width="2.92857" height="3.74998" fill="#E50914"/>
<rect x="35.1428" y="4.03906" width="2.92857" height="3.74998" fill="#E50914"/>
<rect x="32.2141" y="4.03906" width="2.92857" height="3.74998" fill="#E50914"/>
<rect x="29.2856" y="4.03906" width="2.92857" height="3.74998" fill="#E50914"/>
<rect x="26.3572" y="4.03906" width="2.92857" height="3.74998" fill="#E50914"/>
<rect x="23.4287" y="4.03906" width="2.92857" height="3.74998" fill="#E50914"/>
<rect x="20.5" y="4.03906" width="2.92857" height="3.74998" fill="#E50914"/>
<rect x="17.5713" y="4.03906" width="2.92857" height="3.74998" fill="#E50914"/>
<rect x="14.6428" y="4.03906" width="2.92857" height="3.74998" fill="#E50914"/>
<rect x="11.7144" y="4.03906" width="2.92857" height="3.74998" fill="#E50914"/>
<rect x="8.78564" y="4.03906" width="2.92857" height="3.74998" fill="#E50914"/>
<rect x="5.85718" y="4.03906" width="2.92857" height="3.74998" fill="#E50914"/>
<rect x="2.92871" y="4.03906" width="2.92857" height="3.74998" fill="#E50914"/>
<rect x="32.2141" y="0.289062" width="2.92857" height="3.74998" fill="#E50914"/>
<rect x="29.2856" y="0.289062" width="2.92857" height="3.74998" fill="#E50914"/>
<rect x="26.3572" y="0.289062" width="2.92857" height="3.74998" fill="#E50914"/>
<rect x="23.4287" y="0.289062" width="2.92857" height="3.74998" fill="#E50914"/>
<rect x="20.5" y="0.289062" width="2.92857" height="3.74998" fill="#E50914"/>
<rect x="17.5713" y="0.289062" width="2.92857" height="3.74998" fill="#E50914"/>
<rect x="14.6428" y="0.289062" width="2.92857" height="3.74998" fill="#E50914"/>
<rect x="11.7144" y="0.289062" width="2.92857" height="3.74998" fill="#E50914"/>
<rect x="8.78564" y="0.289062" width="2.92857" height="3.74998" fill="#E50914"/>
<rect x="5.85718" y="0.289062" width="2.92857" height="3.74998" fill="#E50914"/>
<rect x="11.7144" y="15.2891" width="2.92857" height="3.74998" fill="#E50914"/>
</svg>
